<svg xmlns="http://www.w3.org/2000/svg" shape-rendering="geometricPrecision" text-rendering="geometricPrecision" image-rendering="optimizeQuality" fill-rule="evenodd" clip-rule="evenodd" viewBox="0 0 360 511.48"><path fill="#D0401B" d="m144.83 306.61 151.45-26.08L360 429.51l-78.8-.9-64.75 52.53z"/><path fill="#F60" d="m231.94 290.08-162.37 4.3L0 459.86l78.8-.91 64.75 52.53z"/><path fill="#F5C800" d="M183.21.03c9.35-.4 16.72 2.86 24.15 7.59 9.44 5.98 20.06 17.8 33.17 25.3 18.45 10.54 52.61-4 70.11 21.99 10.21 15.16 10.69 27.04 11.45 38.78.82 12.67 3.04 24.32 16 41.47 21.47 28.38 25.94 47.27 14.88 66.96-7.54 13.42-23.41 20.88-27.09 29.38-7.81 18.09.83 31.72-9.87 52.81-7.43 14.62-18.89 24.26-34.16 29.18-12.88 4.14-25.8-1.85-36.1 2.48-18.12 7.61-31.48 25.3-45.89 29.77-5.57 1.73-11.11 2.58-16.65 2.54-5.53.04-11.08-.81-16.64-2.54-14.42-4.47-27.78-22.16-45.9-29.77-10.3-4.33-23.22 1.66-36.1-2.48-15.26-4.92-26.73-14.56-34.16-29.18-10.7-21.09-2.06-34.72-9.87-52.81-3.68-8.5-19.55-15.96-27.09-29.38-11.06-19.69-6.58-38.58 14.88-66.96 12.96-17.15 15.18-28.8 16-41.47.76-11.74 1.24-23.62 11.45-38.78 17.5-25.99 51.66-11.45 70.11-21.99 13.12-7.5 23.73-19.32 33.17-25.3 7.44-4.73 14.81-7.99 24.15-7.59z"/><path fill="#FFDD61" d="M183.21.04c9.35-.41 16.71 2.86 24.15 7.58 9.44 5.98 20.06 17.8 33.17 25.3 14.67 8.38 39.28.91 57.54 10.56L91.95 314.9c-2.45-.2-4.92-.62-7.38-1.41-15.27-4.92-26.73-14.55-34.16-29.18-10.7-21.09-2.06-34.72-9.87-52.81-3.68-8.5-19.55-15.96-27.09-29.38-11.06-19.69-6.58-38.58 14.87-66.96 12.97-17.14 15.19-28.8 16.01-41.47.76-11.74 1.24-23.62 11.44-38.78 17.51-26 51.68-11.45 70.12-21.99 13.12-7.5 23.74-19.32 33.17-25.3C166.5 2.9 173.87-.37 183.21.04z"/><path fill="#E37E00" d="M182.71 46.79c71.81 0 130.03 58.22 130.03 130.04 0 71.81-58.22 130.03-130.03 130.03-71.82 0-130.04-58.22-130.04-130.03 0-71.82 58.22-130.04 130.04-130.04z"/><path fill="#fff" d="M182.71 72.88c57.41 0 103.94 46.54 103.94 103.95 0 57.41-46.53 103.94-103.94 103.94S78.76 234.24 78.76 176.83 125.3 72.88 182.71 72.88z"/><path fill="#EDEDED" d="M182.71 72.88c27.48 0 52.49 10.67 71.07 28.09l-127.44 163.2c-4.62-2.98-8.99-6.33-13.07-9.99-21.18-19.02-34.51-46.63-34.51-77.35 0-57.41 46.54-103.95 103.95-103.95z"/><path fill-rule="nonzero" d="M221.66 228.94h-77.9v-26.98h25.09v-44.68l-25.09 2.02v-26.98l33.85-8.76h26.65v78.4h17.4z"/></svg>