<?xml version="1.0" encoding="UTF-8"?>
<svg xmlns="http://www.w3.org/2000/svg" width="24" height="24" version="1.1" viewBox="0 0 24 24">
  <!-- Generator: Adobe Illustrator 30.0.0, SVG Export Plug-In . SVG Version: 2.1.1 Build 123)  -->
  <g id="Layer_2" display="none">
    <polygon points="12 1.61 3 6.8 3 17.2 12 22.39 21 17.2 21 6.8 12 1.61" fill="#fff" stroke="#231f20" stroke-linecap="round" stroke-linejoin="round" stroke-width="2"/>
    <polyline points="3.5 7.09 12.01 12.02 20.5 7.09" fill="none" stroke="#231f20" stroke-linecap="round" stroke-linejoin="round" stroke-width="2"/>
    <line x1="12.01" y1="12.02" x2="12" y2="21.81" fill="none" stroke="#231f20" stroke-linecap="round" stroke-linejoin="round" stroke-width="2"/>
    <polyline points="16.24 4.64 7.76 9.54 7.76 12.99" fill="none" stroke="#231f20" stroke-linecap="round" stroke-linejoin="round" stroke-width="2"/>
  </g>
  <g id="Layer_3">
    <polygon points="11 1.61 2 6.8 2 17.2 11 22.39 20 17.2 20 6.8 11 1.61" fill="#fff" stroke="#2b3990" stroke-linecap="round" stroke-linejoin="round" stroke-width="2"/>
    <polyline points="2 6.8 11 12 20 6.8" fill="none" stroke="#2b3990" stroke-linecap="round" stroke-linejoin="round" stroke-width="2"/>
    <line x1="11" y1="12" x2="11" y2="22.39" fill="none" stroke="#2b3990" stroke-linecap="round" stroke-linejoin="round" stroke-width="2"/>
    <polyline points="15.5 4.21 6.5 9.4 6.5 12.94" fill="none" stroke="#2b3990" stroke-linecap="round" stroke-linejoin="round" stroke-width="2"/>
  </g>
  <g id="Layer_4">
    <g>
      <circle cx="18" cy="17" r="5.5" fill="#fad000"/>
      <path d="M18,12c2.76,0,5,2.24,5,5s-2.24,5-5,5-5-2.24-5-5,2.24-5,5-5M18,11c-3.31,0-6,2.69-6,6s2.69,6,6,6,6-2.69,6-6-2.69-6-6-6h0Z" fill="#fff"/>
    </g>
    <path d="M20.27,16.27h-4.65c-.16,0-.29-.06-.4-.17s-.17-.25-.17-.4.06-.29.17-.4.25-.17.4-.17h4.65c.16,0,.29.06.41.17.11.11.17.25.17.41s-.06.29-.17.41c-.11.11-.25.17-.41.17ZM20.27,18.75h-4.65c-.16,0-.29-.06-.4-.17s-.17-.25-.17-.41.06-.29.17-.41c.11-.11.25-.17.4-.17h4.65c.16,0,.29.06.4.17.11.11.17.25.17.4s-.06.3-.17.41c-.11.12-.25.17-.41.17Z" fill="#fff"/>
  </g>
</svg>